<svg xmlns="http://www.w3.org/2000/svg" height="40" viewBox="0 96 960 960" width="40"><path d="m382 976-18.666-126.667Q346.333 843 328.5 832.667 310.666 822.333 296.333 811L178 863.666 79.333 691l106.334-78.666q-1.667-8.334-2-18.167-.334-9.834-.334-18.167 0-8.333.334-18.167.333-9.833 2-18.167L79.333 461 178 288.334 296.333 341q14.333-11.333 32.334-21.667 18-10.333 34.667-16L382 176h196l18.666 126.667Q613.667 309 631.833 319q18.167 10 31.834 22L782 288.334 880.667 461l-106.334 77.333q1.667 9 2 18.834.334 9.833.334 18.833 0 9-.334 18.5Q776 604 774 613l106.333 78-98.666 172.666-118-52.666q-14.333 11.333-32 22t-35.001 16.333L578 976H382Zm98.667-266.667q55.333 0 94.333-39T614 576q0-55.333-39-94.333t-94.333-39q-55.667 0-94.5 39-38.834 39-38.834 94.333t38.834 94.333q38.833 39 94.5 39Z"/></svg>